<svg id="Layer_1" data-name="Layer 1" xmlns="http://www.w3.org/2000/svg" width="42" height="20" viewBox="0 0 42 20">
  <title>icon-500px</title>
  <path d="M35.08,5.28c-4,0-6.6,3.13-7.46,4.16l0,0,0,0c-.85-1-3.44-4.17-7.48-4.17-2.66,0-4.7,1.34-6.09,4a5.66,5.66,0,0,0-5.19-3.2A5.43,5.43,0,0,0,5.35,7c.11-.71.29-1.79.53-3.2h7.69a.34.34,0,0,0,.34-.34V.34A.34.34,0,0,0,13.58,0H2.78a.34.34,0,0,0-.34.28L.61,10.73a.34.34,0,0,0,.34.4H4.45a.34.34,0,0,0,.3-.18A3,3,0,0,1,7.37,9.66a3,3,0,0,1,3.06,3.12c0,1.65-1.31,3.5-3.06,3.5a2.77,2.77,0,0,1-2.79-2.53.34.34,0,0,0-.34-.34H.34a.34.34,0,0,0-.34.34A6.56,6.56,0,0,0,1.26,17.3c.9,1.23,2.69,2.7,6.11,2.7a7.27,7.27,0,0,0,6.69-3.64A7.09,7.09,0,0,0,20.11,20c4,0,6.44-2.84,7.35-3.91l.15-.18.21.22c1,1.06,3.64,3.87,7.25,3.87C39.41,20,42,16.24,42,12.61A8,8,0,0,0,40.36,7.7,6.49,6.49,0,0,0,35.08,5.28Zm0,10.31c-1.92,0-4.06-2.21-4.69-2.92.64-.71,2.77-2.92,4.69-2.92,2.52,0,2.59,2.89,2.59,2.92S37.63,15.59,35.11,15.59Zm-15,0c-2.52,0-2.59-2.89-2.59-2.92h0s.07-2.92,2.59-2.92c1.91,0,4.05,2.21,4.69,2.92C24.19,13.39,22,15.59,20.14,15.59Z" fill="currentColor"/>
</svg>
