<svg id="Layer_1" data-name="Layer 1" xmlns="http://www.w3.org/2000/svg" width="24.62" height="20" viewBox="0 0 24.62 20">
  <title>icon-twitter</title>
  <path d="M24.81,2.37a10.09,10.09,0,0,1-2.9.8A5.07,5.07,0,0,0,24.13.37,10.18,10.18,0,0,1,20.92,1.6a5.05,5.05,0,0,0-8.61,4.6A14.34,14.34,0,0,1,1.9.92,5.06,5.06,0,0,0,3.47,7.67,5.05,5.05,0,0,1,1.18,7v.06a5.06,5.06,0,0,0,4.05,5,5.12,5.12,0,0,1-1.33.18,4.84,4.84,0,0,1-1-.09,5.05,5.05,0,0,0,4.72,3.51A10.13,10.13,0,0,1,1.39,17.8a10.74,10.74,0,0,1-1.2-.07A14.28,14.28,0,0,0,7.93,20,14.27,14.27,0,0,0,22.3,5.63l0-.65A10.08,10.08,0,0,0,24.81,2.37Z" fill="currentColor"/>
</svg>
